<svg id="Layer_1" data-name="Layer 1" xmlns="http://www.w3.org/2000/svg" viewBox="0 0 192 192"><title>animals</title><g id="Layer_3" data-name="Layer 3"><circle cx="96" cy="96" r="96" style="fill:#0cf"/></g><g id="Design_Here" data-name="Design Here"><path d="M157.38,32.12l-13.34,4.6L146.3,39l.02.02,7.12,7.18.07.06995,1.69,1.7-.01.03-1.72-1.73L153.4,46.2l-7.12-7.18-.02-.02L144,36.72l13.34-4.6a1.66307,1.66307,0,0,1,.3-.08C157.56,32.06,157.47,32.09,157.38,32.12Z" style="fill:none"/><path d="M94.17,141.85a11.99776,11.99776,0,0,1-5.7-21.2c.13-.11.27-.21.41-.31.11-.09.23-.17.35-.25.19-.13.39-.26.59-.38a1.62069,1.62069,0,0,1,.18-.1,2.01415,2.01415,0,0,1,.32-.18c.1-.06.21-.11.32-.17.15-.08.31-.15.47-.22.32-.14.64-.27.97-.38a12.13066,12.13066,0,0,0-3.57,1.99,12.0024,12.0024,0,0,0,5.66,21.2Z" style="fill:none"/><path d="M96.05,142c0,.08-.1.08-.1,0Z" style="fill:none"/><path d="M125.32,60.92a.2175.2175,0,0,1,.08-.05c-.09.06-.18.12-.27.19a9.40506,9.40506,0,0,0-1.58,1.53c-.17.2-.34.42-.5.65a20.64883,20.64883,0,0,0-2.18,3.89c-.11.23-.21.46-.31.7a41.59884,41.59884,0,0,0-1.41,3.98q-.34506,1.15494-.66,2.4c-.03.11005-.06.22-.09.34-.19.78-.38,1.59-.55,2.43-.08.39-.16.79-.24,1.19-.27,1.42-.51,2.91-.71,4.45-.06.41-.11.83-.16,1.26-.05.42-.1.84-.14,1.27-.06.54-.12,1.09-.16,1.64-.03.32-.06.64-.08.97-.11,1.34-.19,2.7-.24,4.1-.02.44-.03.88-.04,1.33-.02.46-.02.93-.03,1.4s-.01.94-.01,1.41v4H116V96c0-1.09.02-2.17.05-3.24q.015-.81006.06-1.59c.02-.53.05-1.05.08-1.57.02-.42.05-.83.08-1.24.02-.34.05-.69.08-1.02.04-.48.08-.95.13-1.42l.09-.9c0-.03.01-.05.01-.08.05-.46.1-.93.16-1.38.04-.36.09-.73.14-1.09.05-.4.11-.8.17-1.2.16-1.12.35-2.22.56-3.27.08-.44.17-.88.26-1.31.11-.54.23-1.07.36-1.58.11005-.48.23-.95.35-1.4.02-.09.05-.18.07-.26.12-.45.24-.89.37-1.31.07-.23.13-.46.2-.68006.08-.24.15-.48.23-.71q.09-.285.18-.54c.06-.18.12-.35.18-.52.12-.34.24-.66.37-.98.13-.35.27-.7.42-1.04.13-.3.26-.6.39-.88q.21-.45.42-.87c.13-.27.27-.53.42006-.79.11-.2.22-.4.34-.6.13-.21.25-.41.38-.6.11-.17.22-.33.32-.48a.60814.60814,0,0,0,.07-.1c.09-.12.18-.23.26-.34.06-.07.11-.15.17-.22a2.17371,2.17371,0,0,1,.24-.29.57218.57218,0,0,0,.07-.08,8.28693,8.28693,0,0,1,1.02-1.03c.08-.07.16-.13.24-.2.02-.01.03-.02.05-.03a.8583.8583,0,0,1,.17-.13A.911.911,0,0,1,125.32,60.92Z" style="fill:none"/><path d="M36.84,47.97l-.03.03L32.1,34.5a1.89045,1.89045,0,0,1,1.71-2.48,1.89875,1.89875,0,0,0-1.67,2.48Z" style="fill:none"/><path d="M61.67,60.69c-.18.11-.36.24-.54.37a9.40431,9.40431,0,0,0-1.58,1.53c-4.4,5.33-7.51,18.28-7.51,33.41v4H52V96c0-1.09.02-2.17.05-3.24q.015-.81006.06-1.59c.02-.53.05-1.05.08-1.57.02-.42.05-.83.08-1.24.08-1.14.18-2.25.3-3.34.05-.49.11-.98.17-1.46.04-.36.09-.73.14-1.09.05-.41.11-.8.17-1.2.17-1.12.35-2.22.56-3.27.08-.44.17-.88.26-1.31a58.36611,58.36611,0,0,1,1.58-5.94c.12-.37.24-.72.36-1.06s.24-.66.37-.98c.13-.35.27-.7.42-1.04.13-.3.26-.6.39-.88q.21-.45.42-.87c.13-.27.27-.53.42-.79.11-.2.22-.4.34-.6.13-.21.25-.41.38-.6a5.72411,5.72411,0,0,1,.32-.48c.11-.15.22-.3.33-.44a6.85571,6.85571,0,0,1,.48-.59,8.28761,8.28761,0,0,1,1.02-1.03,4.81935,4.81935,0,0,1,.46-.36A5.02034,5.02034,0,0,1,61.67,60.69Z" style="fill:none"/><path d="M168.09,120.12a76.16528,76.16528,0,0,0-7.87-64.78l9.32-27.95a3.77208,3.77208,0,0,0-4.86-4.74l-27.04,9.77h-.01a75.99567,75.99567,0,0,0-83.27,0L27.69,22.78a3.95883,3.95883,0,0,0-5.1,4.98l9.19,27.58a76.16528,76.16528,0,0,0-7.87,64.78,39.99138,39.99138,0,0,0,61.36,51.12,76.12409,76.12409,0,0,0,21.46,0,39.9922,39.9922,0,0,0,61.36-51.12ZM45.78,39,38.6,46.24l-.03.03L36.85,48l-.01-.03-.03.03L32.1,34.5a1.89045,1.89045,0,0,1,1.71-2.48,2.63521,2.63521,0,0,1,.28-.01c.1.01.2.02.31.03a1.66577,1.66577,0,0,1,.3.08l13.34,4.6Zm30.26,61H52V96c0-1.09.02-2.17.05-3.24q.015-.81006.06-1.59c.02-.53.05-1.05.08-1.57.02-.42.05-.83.08-1.24.08-1.14.18-2.25.3-3.34.05-.49.11-.98.17-1.46.04-.36.09-.73.14-1.09.05-.4.11-.8.17-1.2.17-1.12.35-2.22.56-3.27.08-.44.17-.88.26-1.31a58.36611,58.36611,0,0,1,1.58-5.94c.12-.37.24-.72.36-1.06s.24-.66.37-.98c.13-.35.27-.7.42-1.04.13-.3.26-.6.39-.88q.21-.45.42-.87c.13-.27.27-.53.42-.79.11-.2.22-.4.34-.6.13-.21.25-.41.38-.6.11-.17.22-.33.32-.48.11-.15.22-.3.33-.44.06-.07.11-.15.17-.22a1.61957,1.61957,0,0,1,.18-.2.21.21,0,0,1,.06-.08.27626.27626,0,0,1,.07-.09,8.287,8.287,0,0,1,1.02-1.03,4.10492,4.10492,0,0,1,.43-.33q.015-.03.03-.03a1.66609,1.66609,0,0,1,.24-.16,2.10956,2.10956,0,0,1,.27-.18,4.97812,4.97812,0,0,1,.56-.29,3.78249,3.78249,0,0,1,.56-.21,3.15472,3.15472,0,0,1,.59-.14A4.315,4.315,0,0,1,64,60h.02a4.59284,4.59284,0,0,1,.63995.05,3.15375,3.15375,0,0,1,.59.14,3.78279,3.78279,0,0,1,.56.21,4.24617,4.24617,0,0,1,.56.29c.08.05.17.11.25.16.01,0,.02.02.02.02a1.66913,1.66913,0,0,1,.24.16c.01,0,.01.01.02.02l.01.01a4.10545,4.10545,0,0,1,.43007.33,9.03834,9.03834,0,0,1,1.02,1.03.54936.54936,0,0,1,.07.09.20933.20933,0,0,1,.06.08,1.62038,1.62038,0,0,1,.18.2c.06.07.11005.14.17005.22.11.13995.22.29.32995.44a5.70131,5.70131,0,0,1,.32.48c.13.19.25.39.38.6.11.19.23.39.34.6.15.26.29.52.42.79q.21.42.42.87c.13.28.26.58.39.88.15.33.29.68.42,1.04.13.32.25.64.37.98s.24.69.36005,1.06a58.37031,58.37031,0,0,1,1.58,5.94c.09.43.18.87.26,1.31.21,1.05.4,2.15.56,3.27.06.4.12.79.17,1.2.05.36.1.73.14,1.09.06.48.12.97.17,1.46.12007,1.09.22,2.2.3,3.34.03.41.06.82.08,1.24.03.52.06,1.04.08,1.57.03.52.05,1.06.06,1.59.03,1.07.05,2.15.05,3.24Zm21.83,41.85a10.42535,10.42535,0,0,1-1.78.15h-.04c0,.08-.1.08-.1,0a10.42633,10.42633,0,0,1-1.78-.15,11.99776,11.99776,0,0,1-5.7-21.2c.13-.11.27-.21.41-.31.11-.09.23-.17.35-.25.19-.13.39-.26.59-.38a1.62069,1.62069,0,0,1,.18-.1,2.01371,2.01371,0,0,1,.32-.18c.1-.06.21-.11.32-.17.15-.08.31-.15.47-.22.32-.14.64-.27.97-.38a12.44167,12.44167,0,0,1,1.36-.38c.17-.04.33-.07.5-.1A11.69207,11.69207,0,0,1,96,118h.02a13.84651,13.84651,0,0,1,1.59.1c.17.02.33.05.49.08.17.03.33.06.5.1a12.43782,12.43782,0,0,1,1.36.38c.33.11.65.24.97.38.16.07.32.14.47.22a3.23676,3.23676,0,0,1,.32.17,2.01171,2.01171,0,0,1,.32.18,6.17211,6.17211,0,0,1,.77.48c.12.08.24.16.35.25.14.1.28.2.41.31a11.99775,11.99775,0,0,1-5.7,21.2ZM140.04,100H116V96c0-1.09.02-2.17.05-3.24q.015-.81006.06-1.59c.02-.53.05-1.05.08-1.57.02-.42.05-.83.08-1.24.02-.34.05-.69.08-1.02.04-.48.08-.95.13-1.42l.09-.9c0-.03.01-.05.01-.08.05-.46.1-.93.16-1.38.04-.36.09-.73.14-1.09.05-.4.11-.8.17-1.2.17-1.12.35-2.22.56-3.27.08-.44.17-.88.26-1.31.11-.54.23-1.07.36-1.58.11005-.48.23-.95.35-1.4.02-.09.05-.18.07-.26.12-.45.24-.89.37-1.31.07-.23.13-.46.2-.68006.08-.24.15-.48.23-.71q.09-.285.18-.54c.06-.18.12-.35.18-.52.12-.34.24-.66.37-.98.13-.35.27-.7.42-1.04.13-.3.26-.6.39-.88q.21-.45.42-.87c.13-.27.27-.53.42006-.79.11-.2.22-.4.34-.6.13-.21.25-.41.38-.6.11-.17.22-.33.32-.48a.60814.60814,0,0,0,.07-.1c.09-.12.18-.23.26-.34.06-.07.11-.15.17-.22a1.62038,1.62038,0,0,1,.18-.2.23664.23664,0,0,1,.06-.09.57218.57218,0,0,0,.07-.08,8.28693,8.28693,0,0,1,1.02-1.03c.08-.07.16-.13.24-.2.02-.01.03-.02.05-.03.05-.04.1-.07.14-.1q.015-.03.03-.03a.911.911,0,0,1,.16-.11.35187.35187,0,0,0,.08-.05l.27-.18a4.97991,4.97991,0,0,1,.56-.29,3.78245,3.78245,0,0,1,.56-.21,3.15375,3.15375,0,0,1,.59-.14A4.31444,4.31444,0,0,1,128,60h.02a4.593,4.593,0,0,1,.64.05,3.15384,3.15384,0,0,1,.59.14,3.78291,3.78291,0,0,1,.56.21,4.2468,4.2468,0,0,1,.56.29l.27.18c.03,0,.05.02.08.05a.65652.65652,0,0,1,.16.11q.015,0,.03.03a1.127,1.127,0,0,1,.13.1h.01a.423.423,0,0,1,.13.11.7.7,0,0,1,.17.13.4741.4741,0,0,1,.1.1c.02,0,.03.01.04.03a.50335.50335,0,0,1,.08.07,2.33058,2.33058,0,0,1,.32.31c.16.16.32.33.47.51a.50062.50062,0,0,1,.07.08.23566.23566,0,0,1,.06.09,1.61957,1.61957,0,0,1,.18.2,16.07779,16.07779,0,0,1,1.54,2.34c.15.26.29.52.42.79q.21.42.42.87c.14.29.27.58.39.88.34.79.66,1.64.97,2.54q.09.25506.18.54c.27.82.53,1.69.77,2.6.17.62.33,1.25.49,1.91.11.46.22.94.32,1.43.09.43.18.87.26,1.31.07.35.14.71.2,1.08.07.36.13.73.19,1.11.13.74.24,1.5.34,2.28.05.36.1.73.14,1.09.06.45.11.91.16,1.38.08.67.14,1.36.2,2.06.04.45.08.9.11005,1.36.03.41.06.82.08,1.24.03.52.06,1.04.08,1.57.03.79.06,1.59.08,2.39.02.81.03,1.62.03,2.44Zm19.89-65.5L155.23,48l-.03-.03-.01.03-1.72-1.73-.07-.07-7.12-7.18-.02-.02L144,36.72l13.34-4.6a1.66307,1.66307,0,0,1,.3-.08c.11-.01.21-.02.31-.03h.08a1.41445,1.41445,0,0,1,.2.01,1.8833,1.8833,0,0,1,1.7,2.48Z" style="fill:#c60"/><path d="M108,130a11.99951,11.99951,0,0,1-10.13,11.85,10.42535,10.42535,0,0,1-1.78.15h-.14a10.42633,10.42633,0,0,1-1.78-.15,12.0024,12.0024,0,0,1-5.66-21.2,12.13089,12.13089,0,0,1,3.57-1.99,12.44167,12.44167,0,0,1,1.36-.38c.17-.04.33-.07.5-.1A11.69112,11.69112,0,0,1,96,118h.02a13.84651,13.84651,0,0,1,1.59.1c.17.02.33.05.49.08.17.03.33.06.5.1a12.43782,12.43782,0,0,1,1.36.38,12.13154,12.13154,0,0,1,3.57,1.99A12.00274,12.00274,0,0,1,108,130Z"/><path d="M139.99,94.59c-.01-.47-.01-.93-.03-1.4-.01-.44-.02-.89-.04-1.33-.05-1.39-.13-2.76-.24-4.1-.02-.33-.05-.65-.08-.97-.04-.55-.1-1.1-.16-1.64-.04-.43-.09-.85-.14-1.27s-.1-.84-.16-1.26c-.2-1.54-.44-3.02-.71-4.45-.08-.4-.16-.8-.24-1.19-.17-.84-.36-1.65-.55-2.43-.03-.11-.06-.22-.09-.34q-.31494-1.24494-.66-2.4c-.43-1.43-.91-2.77-1.41-3.98-.1-.24-.2-.48-.31-.7a21.90853,21.90853,0,0,0-2.18-3.89c-.17-.23-.33-.44-.5-.65a10.91331,10.91331,0,0,0-1.04-1.09,6.93535,6.93535,0,0,0-.54-.44c-.09-.07-.18-.13-.27-.19l-.27-.18a4.2468,4.2468,0,0,0-.56-.29,5.37551,5.37551,0,0,0-.56-.21c-.2-.06-.4-.1-.59-.14a4.59191,4.59191,0,0,0-.64-.05H128a4.315,4.315,0,0,0-.62.05c-.19.04-.39.08-.59.14a5.37551,5.37551,0,0,0-.56.21c-.19.09-.37.18-.56.29l-.27.18c-.09.06-.18.12-.27.19a9.40506,9.40506,0,0,0-1.58,1.53c-.17.21-.33.42-.5.65a20.64827,20.64827,0,0,0-2.18,3.89c-.11.22-.21.46-.31.7a41.60151,41.60151,0,0,0-1.41,3.98q-.34507,1.15494-.66,2.4c-.03.11005-.06.22-.09.34-.19.78-.38,1.59-.55,2.43-.08.39-.16.79-.24,1.19-.27,1.42-.51,2.91-.71,4.45-.06.42-.11.84-.16,1.26s-.1.84-.14,1.27c-.06.54-.12,1.09-.16,1.64-.03.32-.06.64-.08.97-.11,1.34-.19,2.7-.24,4.1-.02.44-.03.89-.04,1.33-.02.47-.02.93-.03,1.4s-.01.94-.01,1.41c0,1.35.02,2.69.07,4h23.86c.02-.56.02-1.14.03-1.72V96C140,95.53,140,95.06,139.99,94.59ZM128.04,96a7.99782,7.99782,0,1,1,.00437,0Z" style="fill:#fff"/><circle cx="128.03998" cy="88" r="8"/><path d="M68.49,62.59a9.40277,9.40277,0,0,0-1.58-1.53c-.09-.06-.18-.13-.27-.19,0,0-.01-.02-.02-.02-.08-.05-.17-.11-.25-.16a4.24788,4.24788,0,0,0-.56-.29,5.38,5.38,0,0,0-.56-.21c-.2-.06-.4-.1-.59-.14a4.5937,4.5937,0,0,0-.64-.05H64a4.315,4.315,0,0,0-.62.05c-.19.04-.39.08-.59.14a5.37381,5.37381,0,0,0-.56.21c-.19.09-.37.18-.56.29a2.10851,2.10851,0,0,0-.27.18c-.09.06-.18.13-.27.19a9.40431,9.40431,0,0,0-1.58,1.53c-4.4,5.33-7.51,18.28-7.51,33.41,0,1.35.02,2.69.07,4H75.97c.02-.56.02-1.14.03-1.72V96C76,80.87,72.89,67.92,68.49,62.59ZM64.04,96a7.99782,7.99782,0,1,1,.00436,0Z" style="fill:#fff"/><circle cx="64.03998" cy="88" r="8"/><path d="M48,36.72,45.74,39l-.37.37a73.63,73.63,0,0,0-6.4,6.46l-.41.41-.03.03-1.69,1.7L32.14,34.5a1.8988,1.8988,0,0,1,1.67-2.48,2.63521,2.63521,0,0,1,.28-.01c.1.01.2.02.31.03.08.02.17.05.26.08Z" style="fill:#630"/><path d="M159.89,34.5,155.2,47.97l-1.69-1.7-.07-.07a73.13748,73.13748,0,0,0-7.12-7.18L146.3,39l-2.26-2.28,13.34-4.6c.09-.03.18-.06.26-.08.11-.01.21-.02.31-.03h.08a1.41445,1.41445,0,0,1,.2.01,1.8915,1.8915,0,0,1,1.66,2.48Z" style="fill:#630"/></g></svg>